<svg xmlns="http://www.w3.org/2000/svg" viewBox="0 0 59 71">
  <defs/>
  <g fill="#FFF" fill-rule="nonzero" transform="translate(0 -1)">
    <path d="M58.34 21.25a3.011 3.011 0 00-2.396-1.179h-38.67l-2.475-7.284H3.058c-1.657 0-3 1.325-3 2.96 0 1.633 1.343 2.958 3 2.958h7.424l13.5 39.733h25.159c1.657 0 3-1.324 3-2.959 0-1.634-1.343-2.958-3-2.958H28.299l-1.726-5.079h23.12a2.995 2.995 0 002.884-2.142l6.25-21.452c.26-.894.08-1.855-.487-2.598zm-7.781 9.548h-4.81V25.99h6.211l-1.401 4.81zm-17.617 0V25.99h6.807v4.808h-6.807v.001zm6.807 5.918v4.808h-6.807v-4.808h6.807zM26.942 25.99v4.808h-6.023l-1.634-4.808h7.657zm-4.013 10.727h4.013v4.808h-2.379l-1.634-4.808zm22.82 4.808v-4.808h3.086l-1.401 4.808h-1.685z"/>
    <ellipse cx="27.406" cy="66.175" rx="5.781" ry="5.702"/>
    <ellipse cx="44.844" cy="66.175" rx="5.781" ry="5.702"/>
    <path d="M29.335 10.552l7.547 5.417a2.007 2.007 0 002.818-.487 2.066 2.066 0 00-.48-2.855l-2.373-1.703 9.436-5.02 4.628 11.85h4.347L49.214 2.276a2.037 2.037 0 00-1.177-1.166 1.995 1.995 0 00-1.643.107l-13.248 7.05-3.022-2.17a2.004 2.004 0 00-2.742.385l-8.481 10.65c-.17.182-.307.391-.405.62h5.106l5.733-7.2z"/>
  </g>
</svg>
